<svg width="50" height="51" viewBox="0 0 50 51" fill="none" xmlns="http://www.w3.org/2000/svg">
<path d="M47.231 41.6658H31V45.6658H47.397C47.7583 45.683 48.1146 45.5757 48.4064 45.3619C48.6981 45.148 48.9077 44.8405 49 44.4908V43.5208C49 43.5208 48.988 41.6658 47.231 41.6658ZM44.986 40.8758C46.0515 40.8742 47.0727 40.4497 47.8254 39.6955C48.5781 38.9414 49.0005 37.9193 49 36.8538C49 34.6268 47.2 32.8308 44.986 32.8308C44.4588 32.8317 43.9369 32.9365 43.4501 33.1392C42.9634 33.3419 42.5214 33.6386 42.1494 34.0122C41.7773 34.3858 41.4826 34.829 41.2819 35.3166C41.0813 35.8042 40.9787 36.3265 40.98 36.8538C40.98 39.0728 42.775 40.8758 44.986 40.8758ZM36.532 40.6658C38.638 40.6658 40.332 39.1818 40.332 37.0788C40.331 34.9798 38.631 33.8788 36.541 33.8628L31 34.5648V40.6658H36.532ZM18.523 14.5988C20.982 14.5988 22.971 12.5988 22.971 10.1318C22.971 7.66477 20.982 5.66577 18.523 5.66577C16.066 5.66577 14.074 7.66477 14.074 10.1318C14.074 12.5988 16.066 14.5988 18.523 14.5988ZM13.981 29.0548L13.941 28.9968L11.925 24.3028L11.922 33.6658H17.947L19.263 32.2658L15.694 30.8918C14.848 30.5738 14.247 29.8538 13.981 29.0548ZM15.258 28.6338C15.453 29.0718 15.814 29.4268 16.268 29.5898L23.145 32.1388C23.3546 32.2307 23.5802 32.2804 23.809 32.285C24.0377 32.2896 24.2652 32.249 24.4783 32.1656C24.6914 32.0822 24.8859 31.9576 25.0508 31.7989C25.2156 31.6402 25.3475 31.4505 25.439 31.2408C25.6246 30.8153 25.6346 30.3336 25.4668 29.9008C25.299 29.468 24.9669 29.1189 24.543 28.9298L18.198 26.5338L16.238 21.8328L17.516 21.3568L19.177 25.3848L24 27.1728V22.2508L26.56 23.7738L27.836 30.2018C27.9095 30.4193 28.0253 30.62 28.1769 30.7925C28.3284 30.9649 28.5127 31.1056 28.7189 31.2064C28.9252 31.3072 29.1493 31.3661 29.3785 31.3797C29.6077 31.3934 29.8373 31.3614 30.054 31.2858C30.4905 31.1305 30.8481 30.8094 31.0494 30.3921C31.2506 29.9748 31.2792 29.495 31.129 29.0568L29.699 22.8658C29.605 22.5232 29.409 22.2173 29.137 21.9888C28.404 21.1768 24.697 17.0318 24.433 16.7548C24.046 16.3668 23.161 15.6658 21.489 15.6658H15.489C12.079 15.6658 11.423 19.1458 12.12 20.9158L15.258 28.6338ZM30 34.6658H2.967C1.983 34.6658 1 35.2208 1 36.4418V45.6658H30V34.6658Z" fill="#B1873F"/>
</svg>
